<?xml version="1.0" encoding="UTF-8"?>
<svg width="16px" height="20px" viewBox="0 0 16 20" version="1.1" xmlns="http://www.w3.org/2000/svg" xmlns:xlink="http://www.w3.org/1999/xlink">
    <!-- Generator: Sketch 52.3 (67297) - http://www.bohemiancoding.com/sketch -->
    <title>Fill 1</title>
    <desc>Created with Sketch.</desc>
    <g id="Symbols" stroke="none" stroke-width="1" fill="none" fill-rule="evenodd">
        <g id="top_menu_1" transform="translate(-1329.000000, -4.000000)" fill="#353535">
            <path d="M1337.00005,21.9931058 C1336.0073,21.9931058 1335.16877,21.3237767 1334.90996,20.4127752 L1339.08996,20.4127752 C1338.83133,21.3237767 1337.99262,21.9931058 1337.00005,21.9931058 Z M1330.18521,17.3401084 L1331.37037,16.1547711 L1331.37037,12.6769371 C1331.37037,9.98355673 1333.28679,7.65893212 1335.92716,7.14970653 L1336.40747,7.05707138 L1336.40747,5.77784959 C1336.40747,5.45103849 1336.67324,5.18527022 1337.00005,5.18527022 C1337.32686,5.18527022 1337.59263,5.45103849 1337.59263,5.77784959 L1337.59263,7.05707138 L1338.07294,7.14970653 C1340.71331,7.65893212 1342.62973,9.98355673 1342.62973,12.6769371 L1342.62973,16.1547711 L1343.81489,17.3401084 L1343.81489,19.2276164 L1330.18521,19.2276164 L1330.18521,17.3401084 Z M1345.00005,19.2277949 L1345.00005,16.8490885 L1343.81489,15.6639298 L1343.81489,12.6769371 C1343.81489,9.58231624 1341.72409,6.88982835 1338.77779,6.09680722 L1338.77779,5.77784959 C1338.77779,4.7975948 1337.98031,3.99993299 1337.00005,3.99993299 C1336.0198,3.99993299 1335.22231,4.7975948 1335.22231,5.77784959 L1335.22231,6.09680722 C1332.27584,6.88982835 1330.18521,9.58231624 1330.18521,12.6769371 L1330.18521,15.6639298 L1329.00005,16.8490885 L1329.00005,19.2277949 L1329.00005,20.4127752 L1333.69535,20.4127752 C1333.97629,21.9825751 1335.35064,23.1784431 1337.00005,23.1784431 C1338.64946,23.1784431 1340.02381,21.9825751 1340.30457,20.4127752 L1345.00005,20.4127752 L1345.00005,19.2277949 Z" id="Fill-1"></path>
        </g>
    </g>
</svg>