<?xml version="1.0" encoding="UTF-8"?>
<svg width="17px" height="23px" viewBox="0 0 17 23" version="1.1" xmlns="http://www.w3.org/2000/svg" xmlns:xlink="http://www.w3.org/1999/xlink">
    <!-- Generator: Sketch 46.2 (44496) - http://www.bohemiancoding.com/sketch -->
    <title>Fill 1</title>
    <desc>Created with Sketch.</desc>
    <defs></defs>
    <g id="Symbols" stroke="none" stroke-width="1" fill="none" fill-rule="evenodd">
        <g id="북마크" transform="translate(-1.000000, 0.000000)" fill="#CCCCCC">
            <path d="M16.6433732,-7.99521169e-05 L2.35614713,-7.99521169e-05 C1.61020956,-7.99521169e-05 0.999760144,0.836935766 0.999760144,1.86062405 L0.999760144,22.6964443 C0.999760144,22.7702101 1.04417015,22.8040821 1.12621576,22.8040821 C2.1845288,22.8040821 9.54454651,17.1158377 9.54454651,17.1158377 C9.54454651,17.1158377 16.8285403,22.8040821 17.87481,22.8040821 C17.9561028,22.8040821 17.9997601,22.7702101 17.9997601,22.6964443 L17.9997601,1.86062405 C17.9997601,0.836935766 17.3893107,-7.99521169e-05 16.6433732,-7.99521169e-05 M16.4250867,1.505344 C16.458206,1.57910978 16.4943362,1.69803827 16.4943362,1.86062405 L16.4943362,20.35551 C14.8985868,19.2859063 12.5170061,17.5260657 10.4718877,15.9295636 L9.54981549,15.2092183 L8.62397976,15.9242946 C6.54348385,17.5320874 4.11899858,19.3039714 2.5051841,20.3720697 L2.5051841,1.86062405 C2.5051841,1.69803827 2.54131427,1.57910978 2.5744336,1.505344 L16.4250867,1.505344" id="Fill-1"></path>
        </g>
    </g>
</svg>