<?xml version="1.0" encoding="UTF-8"?>
<svg width="20px" height="12px" viewBox="0 0 20 12" version="1.1" xmlns="http://www.w3.org/2000/svg" xmlns:xlink="http://www.w3.org/1999/xlink">
    <!-- Generator: Sketch 46.2 (44496) - http://www.bohemiancoding.com/sketch -->
    <title>Page 1</title>
    <desc>Created with Sketch.</desc>
    <defs></defs>
    <g id="Page-1" stroke="none" stroke-width="1" fill="none" fill-rule="evenodd">
        <g id="mate_recruit" transform="translate(-190.000000, -347.000000)" fill="#979797">
            <g id="Page-1" transform="translate(190.000000, 347.000000)">
                <path d="M18.8830228,6.09950552 C17.8429542,7.43300542 16.4960073,8.53589134 14.9877352,9.28892293 C14.5598728,9.50252473 14.1227099,9.68663615 13.6777578,9.84307854 C14.8231549,8.81273663 15.5447585,7.32000418 15.5447585,5.66176134 C15.5447585,4.0026272 14.8224573,2.50923597 13.6760527,1.47889406 C14.1217024,1.63549146 14.5593303,1.82064919 14.987774,2.03459975 C16.4960073,2.78763135 17.8429929,3.89051726 18.8830616,5.22401717 C19.0840302,5.4817964 19.0840302,5.84176504 18.8830228,6.09950552 M9.92062157,10.4788074 C7.26447237,10.4788074 5.10353676,8.31791055 5.10353676,5.66176134 C5.10353676,3.00561214 7.26447237,0.844754034 9.92062157,0.844754034 C12.5767708,0.844754034 14.7376289,3.00565089 14.7376289,5.6618001 C14.7376289,8.3179493 12.5767708,10.4788074 9.92062157,10.4788074 M4.8534692,9.28896169 C3.34519714,8.53593009 1.998289,7.43304418 0.958220301,6.09954427 C0.757212948,5.84180379 0.757212948,5.48183516 0.958220301,5.22409467 C1.99825025,3.89059477 3.34515839,2.78770885 4.8534692,2.03467726 C5.28183536,1.82084295 5.71926952,1.63591773 6.16480288,1.47935908 C5.01859207,2.50970099 4.29644593,4.00289847 4.29644593,5.6618001 C4.29644593,7.32077923 5.01863082,8.81409296 6.16495789,9.84439611 C5.71942453,9.68783747 5.28183536,9.50283475 4.8534692,9.28896169 M19.5194492,4.72767975 C18.4058677,3.29993464 16.9635131,2.11896316 15.3482464,1.31253112 C13.6994203,0.489319402 11.9256573,0.0621933101 10.0739638,0.039794573 C10.0229272,0.0383994959 9.81819967,0.0383994959 9.76720185,0.039794573 C7.91550833,0.0622320623 6.14166785,0.489319402 4.49288053,1.31253112 C2.87761382,2.11896316 1.43533665,3.29989589 0.321716394,4.72767975 C-0.107231048,5.27768888 -0.107231048,6.04595006 0.321716394,6.59599794 C1.4352979,8.0237043 2.87761382,9.20467578 4.49288053,10.0111078 C6.14166785,10.8343195 7.91546957,11.2614456 9.76720185,11.2838444 C9.81819967,11.2852394 10.0229272,11.2852394 10.0739638,11.2838444 C11.9256186,11.2614069 13.6994203,10.8343195 15.3482464,10.0111078 C16.9635131,9.20467578 18.4058677,8.02374305 19.5194492,6.59599794 C19.9483967,6.04587256 19.9483967,5.27768888 19.5194492,4.72767975" id="Fill-1"></path>
                <path d="M9.92060607,6.91610225 C9.22899662,6.91610225 8.66627679,6.35342117 8.66627679,5.66177297 C8.66627679,4.97012477 9.22891912,4.40748244 9.92060607,4.40748244 C10.6122155,4.40748244 11.1748966,4.97012477 11.1748966,5.66177297 C11.1749354,6.35342117 10.6122155,6.91610225 9.92060607,6.91610225 M9.92060607,3.60035286 C8.78392829,3.60035286 7.85918596,4.52509519 7.85918596,5.66177297 C7.85918596,6.79845075 8.78392829,7.72319308 9.92060607,7.72319308 C11.0572839,7.72319308 11.9820262,6.79845075 11.9820262,5.66177297 C11.9820649,4.52509519 11.0573226,3.60035286 9.92060607,3.60035286" id="Fill-4"></path>
            </g>
        </g>
    </g>
</svg>