<?xml version="1.0" encoding="UTF-8"?>
<svg width="20px" height="19px" viewBox="0 0 20 19" version="1.1" xmlns="http://www.w3.org/2000/svg" xmlns:xlink="http://www.w3.org/1999/xlink">
    <!-- Generator: Sketch 52.3 (67297) - http://www.bohemiancoding.com/sketch -->
    <title>Page 1</title>
    <desc>Created with Sketch.</desc>
    <g id="Symbols" stroke="none" stroke-width="1" fill="none" fill-rule="evenodd">
        <g id="top_menu_1" transform="translate(-1286.000000, -4.000000)">
            <g id="Page-1" transform="translate(1286.285714, 5.000000)">
                <path d="M12.9287429,6.72811429 C16.1555048,6.72811429 18.7710762,8.65154286 18.7710762,11.0242571 C18.7710762,12.2506857 18.0684095,13.3548762 16.9464095,14.1376857 L18.0076952,16.2821143 L14.8659333,15.0734952 C14.2587905,15.2305429 13.6087429,15.3204 12.9287429,15.3204 C9.70198095,15.3204 7.08640952,13.3969714 7.08640952,11.0242571 C7.08640952,8.65154286 9.70198095,6.72811429 12.9287429,6.72811429 Z" id="Stroke-1" stroke="#353535" stroke-width="1.2"></path>
                <path d="M8.85141429,0.48587619 C4.23065238,0.48587619 0.485795238,3.23987619 0.485795238,6.63744762 C0.485795238,8.39411429 1.49203333,9.97430476 3.09812857,11.0946857 L1.57865238,14.166019 L6.07798571,12.4352571 C6.94741429,12.6603048 7.87755714,12.7882095 8.85141429,12.7882095 C13.4721762,12.7882095 17.2170333,10.0342095 17.2170333,6.63744762 C17.2170333,3.23987619 13.4721762,0.48587619 8.85141429,0.48587619" id="Fill-3" fill="#FFFFFF"></path>
                <path d="M8.85141429,0.48587619 C4.23065238,0.48587619 0.485795238,3.23987619 0.485795238,6.63744762 C0.485795238,8.39411429 1.49203333,9.97430476 3.09812857,11.0946857 L1.57865238,14.166019 L6.07798571,12.4352571 C6.94741429,12.6603048 7.87755714,12.7882095 8.85141429,12.7882095 C13.4721762,12.7882095 17.2170333,10.0342095 17.2170333,6.63744762 C17.2170333,3.23987619 13.4721762,0.48587619 8.85141429,0.48587619 Z" id="Stroke-5" stroke="#353535" stroke-width="1.2"></path>
            </g>
        </g>
    </g>
</svg>