<?xml version="1.0" encoding="UTF-8"?>
<svg width="121px" height="23px" viewBox="0 0 121 23" version="1.1" xmlns="http://www.w3.org/2000/svg" xmlns:xlink="http://www.w3.org/1999/xlink">
    <!-- Generator: Sketch 46.2 (44496) - http://www.bohemiancoding.com/sketch -->
    <title>Page 1</title>
    <desc>Created with Sketch.</desc>
    <defs>
        <polygon id="path-1" points="1.62128882e-15 17.6852333 1.62128882e-15 0.150333333 12.3078667 0.150333333 12.3078667 17.6852333"></polygon>
        <polygon id="path-3" points="11.8913333 12.6854667 11.8913333 0.288133333 0.307533333 0.288133333 0.307533333 12.6854667 11.8913333 12.6854667"></polygon>
    </defs>
    <g id="Symbols" stroke="none" stroke-width="1" fill="none" fill-rule="evenodd">
        <g id="logo">
            <g id="Page-1">
                <g id="Group-3" transform="translate(0.000000, 0.182933)">
                    <mask id="mask-2" fill="white">
                        <use xlink:href="#path-1"></use>
                    </mask>
                    <g id="Clip-2"></g>
                    <path d="M8.1642,15.1275667 C8.76753333,14.7632333 9.24386667,14.2602333 9.59386667,13.6199 C9.94353333,12.9799 10.1188667,12.2649 10.1188667,11.4752333 C10.1188667,10.6862333 9.94353333,9.97523333 9.59386667,9.34256667 C9.24386667,8.70956667 8.76753333,8.2109 8.1642,7.8459 C7.56086667,7.4809 6.88686667,7.29823333 6.14253333,7.29823333 C5.39786667,7.29823333 4.7242,7.4809 4.1212,7.8459 C3.5182,8.2109 3.0452,8.70956667 2.70286667,9.34256667 C2.35986667,9.97523333 2.18886667,10.6862333 2.18886667,11.4752333 C2.18886667,12.2649 2.35986667,12.9799 2.70286667,13.6199 C3.0452,14.2602333 3.5182,14.7632333 4.1212,15.1275667 C4.7242,15.4929 5.39786667,15.6749 6.14253333,15.6749 C6.88686667,15.6749 7.56086667,15.4929 8.1642,15.1275667 M9.50453333,6.09223333 C10.3755333,6.62823333 11.0605333,7.36923333 11.5595333,8.3149 C12.0582,9.26056667 12.3078667,10.3139 12.3078667,11.4752333 C12.3078667,12.6369 12.0395333,13.6909 11.5035333,14.6362333 C10.9675333,15.5819 10.2265333,16.3265667 9.28086667,16.8702333 C8.3352,17.4139 7.2892,17.6852333 6.14253333,17.6852333 C4.99586667,17.6852333 3.95686667,17.4139 3.02653333,16.8702333 C2.09586667,16.3265667 1.35853333,15.5819 0.8152,14.6362333 C0.271533333,13.6909 -0.000133333333,12.6369 -0.000133333333,11.4752333 L-0.000133333333,1.28956667 C-0.000133333333,0.947233333 0.107533333,0.6719 0.323866667,0.463233333 C0.539533333,0.254566667 0.8112,0.150233333 1.13886667,0.150233333 C1.48153333,0.150233333 1.75653333,0.254566667 1.96553333,0.463233333 C2.17386667,0.6719 2.2782,0.947233333 2.2782,1.28956667 L2.2782,7.3209 C2.7992,6.68056667 3.4322,6.18156667 4.17686667,5.82423333 C4.9212,5.4669 5.72553333,5.2879 6.5892,5.2879 C7.66153333,5.2879 8.6332,5.55623333 9.50453333,6.09223333" id="Fill-1" fill="#FFD112" mask="url(#mask-2)"></path>
                </g>
                <path d="M37.5587333,15.3217333 C38.1620667,14.9644 38.6307333,14.4694 38.9660667,13.8364 C39.3014,13.2037333 39.4687333,12.4850667 39.4687333,11.6810667 C39.4687333,10.8767333 39.3014,10.1547333 38.9660667,9.5144 C38.6307333,8.87406667 38.1620667,8.37473333 37.5587333,8.0174 C36.9557333,7.66006667 36.2744,7.4814 35.5150667,7.4814 C34.7554,7.4814 34.0740667,7.66006667 33.4710667,8.0174 C32.8680667,8.37473333 32.3950667,8.87406667 32.0527333,9.5144 C31.7097333,10.1547333 31.5387333,10.8767333 31.5387333,11.6810667 C31.5387333,12.4850667 31.7097333,13.2037333 32.0527333,13.8364 C32.3950667,14.4694 32.8680667,14.9644 33.4710667,15.3217333 C34.0740667,15.6790667 34.7554,15.8577333 35.5150667,15.8577333 C36.2744,15.8577333 36.9557333,15.6790667 37.5587333,15.3217333 M38.6757333,6.26406667 C39.6064,6.79273333 40.3360667,7.52606667 40.8644,8.46406667 C41.3934,9.4024 41.6577333,10.4744 41.6577333,11.6810667 L41.6577333,16.5057333 C41.6577333,17.6820667 41.3970667,18.7540667 40.8760667,19.7224 C40.3544,20.6900667 39.6210667,21.4534 38.6757333,22.0117333 C37.7300667,22.5704 36.6614,22.8494 35.4700667,22.8494 C34.3980667,22.8494 33.4000667,22.6370667 32.4770667,22.2130667 C31.5534,21.7884 30.7797333,21.1817333 30.1540667,20.3924 C29.9897333,20.1837333 29.9084,19.9750667 29.9084,19.7667333 C29.9084,19.4544 30.0647333,19.1864 30.3774,18.9627333 C30.5857333,18.8287333 30.7940667,18.7617333 31.0027333,18.7617333 C31.3747333,18.7617333 31.6800667,18.9184 31.9187333,19.2307333 C32.3207333,19.7520667 32.8267333,20.1500667 33.4374,20.4260667 C34.0480667,20.7010667 34.7404,20.8390667 35.5150667,20.8390667 C36.2444,20.8390667 36.9074,20.6640667 37.5030667,20.3140667 C38.0984,19.9640667 38.5750667,19.4504 38.9327333,18.7730667 C39.2900667,18.0950667 39.4687333,17.2874 39.4687333,16.3494 L39.4687333,15.5714 C39.0067333,16.3904 38.3967333,16.7144 37.6367333,17.1757333 C36.8777333,17.6377333 36.0210667,17.8684 35.0684,17.8684 C33.9657333,17.8684 32.9797333,17.6040667 32.1084,17.0754 C31.2374,16.5467333 30.5594,15.8134 30.0757333,14.8750667 C29.5917333,13.9370667 29.3500667,12.8724 29.3500667,11.6810667 C29.3500667,10.4744 29.6104,9.4024 30.1314,8.46406667 C30.6527333,7.52606667 31.3824,6.79273333 32.3207333,6.26406667 C33.2587333,5.73573333 34.3230667,5.47106667 35.5150667,5.47106667 C36.6910667,5.47106667 37.7447333,5.73573333 38.6757333,6.26406667" id="Fill-4" fill="#FFD112"></path>
                <path d="M45.4387667,17.4548667 C45.2227667,17.2395333 45.1147667,16.9675333 45.1147667,16.6395333 L45.1147667,6.0662 C45.1147667,5.7242 45.2227667,5.44853333 45.4387667,5.23986667 C45.6541,5.03153333 45.9261,4.9272 46.2541,4.9272 C46.5964333,4.9272 46.8717667,5.03153333 47.0804333,5.23986667 C47.2887667,5.44853333 47.3934333,5.7242 47.3934333,6.0662 L47.3934333,16.6395333 C47.3934333,16.9675333 47.2887667,17.2395333 47.0804333,17.4548667 C46.8717667,17.6708667 46.5964333,17.7788667 46.2541,17.7788667 C45.9261,17.7788667 45.6541,17.6708667 45.4387667,17.4548667 M45.2151,3.13653333 C44.9247667,2.84653333 44.7794333,2.5002 44.7794333,2.0982 C44.7794333,1.69586667 44.9247667,1.34986667 45.2151,1.0592 C45.5054333,0.768866667 45.8517667,0.623866667 46.2541,0.623866667 C46.6557667,0.623866667 47.0021,0.768866667 47.2924333,1.0592 C47.5831,1.34986667 47.7281,1.69586667 47.7281,2.0982 C47.7281,2.5002 47.5831,2.84653333 47.2924333,3.13653333 C47.0021,3.4272 46.6557667,3.57253333 46.2541,3.57253333 C45.8517667,3.57253333 45.5054333,3.4272 45.2151,3.13653333" id="Fill-6" fill="#FFD112"></path>
                <path d="M94.0320333,15.3105 C94.6353667,14.9461667 95.1077,14.4471667 95.4503667,13.8141667 C95.7930333,13.1811667 95.9643667,12.4701667 95.9643667,11.6808333 C95.9643667,10.8915 95.7930333,10.1768333 95.4503667,9.5365 C95.1077,8.8965 94.6353667,8.39383333 94.0320333,8.02883333 C93.4287,7.66383333 92.7550333,7.48116667 92.0107,7.48116667 C91.2657,7.48116667 90.5923667,7.66383333 89.9890333,8.02883333 C89.3860333,8.39383333 88.9090333,8.8965 88.5593667,9.5365 C88.2093667,10.1768333 88.0343667,10.8915 88.0343667,11.6808333 C88.0343667,12.4701667 88.2093667,13.1811667 88.5593667,13.8141667 C88.9090333,14.4471667 89.3860333,14.9461667 89.9890333,15.3105 C90.5923667,15.6758333 91.2657,15.8578333 92.0107,15.8578333 C92.7550333,15.8578333 93.4287,15.6758333 94.0320333,15.3105 M95.1263667,6.2865 C96.0570333,6.83016667 96.7940333,7.5745 97.3380333,8.52016667 C97.8813667,9.46583333 98.1533667,10.5191667 98.1533667,11.6808333 L98.1533667,16.6618333 C98.1533667,16.9898333 98.0450333,17.2618333 97.8297,17.4775 C97.6133667,17.6931667 97.3413667,17.8011667 97.0143667,17.8011667 C96.6863667,17.8011667 96.4143667,17.6931667 96.1987,17.4775 C95.9830333,17.2618333 95.8750333,16.9898333 95.8750333,16.6618333 L95.8750333,15.8355 C95.3533667,16.4761667 94.7207,16.9748333 93.9763667,17.3321667 C93.2313667,17.6895 92.4273667,17.8681667 91.5640333,17.8681667 C90.4917,17.8681667 89.5200333,17.6001667 88.6487,17.0641667 C87.7773667,16.5281667 87.0923667,15.7871667 86.5937,14.8415 C86.0947,13.8961667 85.8453667,12.8425 85.8453667,11.6808333 C85.8453667,10.5191667 86.1137,9.46583333 86.6497,8.52016667 C87.1857,7.5745 87.9263667,6.83016667 88.8720333,6.2865 C89.8177,5.74283333 90.8637,5.47083333 92.0107,5.47083333 C93.1570333,5.47083333 94.1960333,5.74283333 95.1263667,6.2865" id="Fill-8" fill="#FFD112"></path>
                <path d="M107.1009,15.8577 C107.2869,16.0667 107.380233,16.3347 107.380233,16.6620333 C107.380233,16.9897 107.257233,17.2580333 107.011567,17.4660333 C106.766233,17.6750333 106.449233,17.7790333 106.062233,17.7790333 L105.660233,17.7790333 C104.930567,17.7790333 104.264233,17.5890333 103.661233,17.2093667 C103.0579,16.8297 102.5849,16.3123667 102.242567,15.6567 C101.899567,15.0017 101.728567,14.2647 101.728567,13.4453667 L101.728567,7.92803333 L100.701233,7.92803333 C100.388567,7.92803333 100.135233,7.8387 99.9415667,7.66003333 C99.7482333,7.48136667 99.6515667,7.25803333 99.6515667,6.9897 C99.6515667,6.69203333 99.7482333,6.4537 99.9415667,6.27503333 C100.135233,6.09636667 100.388567,6.00703333 100.701233,6.00703333 L101.728567,6.00703333 L101.728567,2.79036667 C101.728567,2.46303333 101.8329,2.19503333 102.041567,1.98636667 C102.2499,1.77803333 102.5179,1.6737 102.845567,1.6737 C103.173233,1.6737 103.441233,1.77803333 103.6499,1.98636667 C103.858233,2.19503333 103.962567,2.46303333 103.962567,2.79036667 L103.962567,6.00703333 L105.861567,6.00703333 C106.1739,6.00703333 106.4269,6.09636667 106.6209,6.27503333 C106.8139,6.4537 106.9109,6.69203333 106.9109,6.9897 C106.9109,7.25803333 106.8139,7.48136667 106.6209,7.66003333 C106.4269,7.8387 106.1739,7.92803333 105.861567,7.92803333 L103.962567,7.92803333 L103.962567,13.4453667 C103.962567,14.0413667 104.126233,14.5400333 104.454233,14.9420333 C104.781567,15.3440333 105.183567,15.5453667 105.660233,15.5453667 L106.4199,15.5453667 C106.6879,15.5453667 106.914567,15.6497 107.1009,15.8577" id="Fill-10" fill="#FFD112"></path>
                <path d="M61.554,8.02063333 C61.0923333,7.1643 60.4516667,6.51296667 59.633,6.06596667 C58.8136667,5.6193 57.8906667,5.39596667 56.8633333,5.39596667 C56.7736667,5.39596667 56.6886667,5.39096667 56.6003333,5.39096667 C56.5123333,5.39096667 56.4243333,5.39596667 56.335,5.39596667 C55.3076667,5.39596667 54.3843333,5.6193 53.565,6.06596667 C52.7463333,6.51296667 52.1056667,7.1643 51.6443333,8.02063333 C51.183,8.87696667 50.9516667,9.90796667 50.9516667,11.1143 L50.9516667,16.6093 C50.9516667,16.9373 51.06,17.2089667 51.2756667,17.4246333 C51.4916667,17.6406333 51.7633333,17.7486333 52.091,17.7486333 C52.4186667,17.7486333 52.6903333,17.6406333 52.9063333,17.4246333 C53.1223333,17.2089667 53.2303333,16.9373 53.2303333,16.6093 L53.2303333,11.1143 C53.2303333,9.90796667 53.554,8.99596667 54.202,8.37796667 C54.812,7.79596667 55.6123333,7.49163333 56.599,7.45763333 C57.5856667,7.49163333 58.3863333,7.79596667 58.9963333,8.37796667 C59.6443333,8.99596667 59.968,9.90796667 59.968,11.1143 L59.968,16.6093 C59.968,16.9373 60.0756667,17.2089667 60.292,17.4246333 C60.5076667,17.6406333 60.7793333,17.7486333 61.1073333,17.7486333 C61.4346667,17.7486333 61.7063333,17.6406333 61.9223333,17.4246333 C62.1383333,17.2089667 62.2466667,16.9373 62.2466667,16.6093 L62.2466667,11.1143 C62.2466667,9.90796667 62.0153333,8.87696667 61.554,8.02063333" id="Fill-12" fill="#FFD112"></path>
                <path d="M70.0660667,5.449 C68.7704,5.449 67.7244,5.87333333 66.9274,6.722 C66.1307333,7.571 65.7324,8.75466667 65.7324,10.274 L65.7324,11.1416667 L65.7324,16.4566667 L65.7324,16.6623333 C65.7324,16.9903333 65.8367333,17.262 66.0450667,17.4776667 C66.2537333,17.6936667 66.5290667,17.8016667 66.8717333,17.8016667 C67.1994,17.8016667 67.4710667,17.6936667 67.6870667,17.4776667 C67.9030667,17.262 68.0107333,16.9903333 68.0107333,16.6623333 L68.0107333,10.274 C68.0107333,9.36566667 68.2384,8.67666667 68.6920667,8.20766667 C69.0560667,7.83166667 69.5197333,7.609 70.0797333,7.53433333 C70.0860667,7.54433333 70.4910667,7.504 70.7030667,7.504 C71.4627333,7.504 72.0694,7.73866667 72.5237333,8.20766667 C72.9777333,8.67666667 73.2050667,9.36566667 73.2050667,10.274 L73.2050667,16.6623333 C73.2050667,16.9903333 73.3127333,17.262 73.5290667,17.4776667 C73.7444,17.6936667 74.0167333,17.8016667 74.3440667,17.8016667 C74.6864,17.8016667 74.9620667,17.6936667 75.1707333,17.4776667 C75.3790667,17.262 75.4834,16.9903333 75.4834,16.6623333 L75.4834,10.3633333 C75.4834,9.52933333 75.7327333,8.84433333 76.2317333,8.30833333 C76.7304,7.772 77.3670667,7.504 78.1414,7.504 C78.9010667,7.504 79.5077333,7.73866667 79.9620667,8.20766667 C80.4160667,8.67666667 80.6430667,9.36566667 80.6430667,10.274 L80.6430667,16.6623333 C80.6430667,16.9903333 80.7510667,17.262 80.9674,17.4776667 C81.1830667,17.6936667 81.4550667,17.8016667 81.7824,17.8016667 C82.1250667,17.8016667 82.4000667,17.6936667 82.6087333,17.4776667 C82.8174,17.262 82.9217333,16.9903333 82.9217333,16.6623333 L82.9217333,10.274 C82.9217333,8.75466667 82.5234,7.571 81.7264,6.722 C80.9297333,5.87333333 79.8840667,5.449 78.5880667,5.449 C77.7690667,5.449 77.0247333,5.60533333 76.3544,5.918 C75.6844,6.23066667 75.1260667,6.663 74.6794,7.21333333 C74.2917333,6.64766667 73.7970667,6.21233333 73.1937333,5.907 C72.5907333,5.60166667 71.9094,5.449 71.1497333,5.449" id="Fill-14" fill="#FFD112"></path>
                <path d="M17.1935,10.6754 C17.3721667,9.67806667 17.8001667,8.8814 18.4778333,8.2854 C19.1555,7.69006667 20.0375,7.39173333 21.1248333,7.39173333 C22.1078333,7.39173333 22.9041667,7.69006667 23.5151667,8.2854 C24.1251667,8.8814 24.4978333,9.67806667 24.6318333,10.6754 L17.1935,10.6754 Z M26.3965,12.1830667 C26.5895,11.9974 26.6778333,11.7627333 26.6778333,11.4797333 C26.6778333,10.3034 26.4635,9.26106667 26.0168333,8.3524 C25.5701667,7.4444 24.9295,6.73673333 24.0958333,6.2304 C23.2615,5.7244 22.2715,5.47106667 21.1248333,5.47106667 C19.9635,5.47106667 18.9245,5.73573333 18.0088333,6.26406667 C17.0931667,6.79273333 16.3781667,7.52973333 15.8645,8.4754 C15.3505,9.42106667 15.0938333,10.4897333 15.0938333,11.6810667 C15.0938333,12.8724 15.3655,13.9370667 15.9091667,14.8750667 C16.4525,15.8134 17.2078333,16.5467333 18.1761667,17.0754 C19.1441667,17.6040667 20.2388333,17.8684 21.4598333,17.8684 C22.1448333,17.8684 22.8631667,17.7417333 23.6155,17.4884 C24.3675,17.2354 24.9965,16.9077333 25.5031667,16.5057333 C25.6928333,16.3630667 25.8038333,16.1910667 25.8421667,15.9917333 C25.8651667,15.9094 25.8811667,15.8247333 25.8811667,15.7354 C25.8811667,15.2037333 25.4505,14.7730667 24.9191667,14.7730667 C24.7495,14.7730667 24.5925,14.8210667 24.4541667,14.8977333 C24.3521667,14.9334 24.2385,14.9947333 24.0511667,15.0984 C23.7591667,15.2807333 23.3398333,15.5377333 22.8558333,15.7017333 C22.3721667,15.8654 21.9068333,15.9470667 21.4598333,15.9470667 C20.3281667,15.9470667 19.3711667,15.6270667 18.5895,14.9867333 C17.8078333,14.3464 17.3348333,13.5054 17.1711667,12.4624 L25.6595,12.4534 C25.9571667,12.4534 26.2028333,12.3697333 26.3965,12.1830667 L26.3965,12.1830667 Z" id="Fill-16" fill="#FFD112"></path>
                <g id="Group-20" transform="translate(108.666667, 5.182933)">
                    <mask id="mask-4" fill="white">
                        <use xlink:href="#path-3"></use>
                    </mask>
                    <g id="Clip-19"></g>
                    <path d="M2.40686667,5.49246667 C2.58553333,4.49513333 3.01353333,3.69846667 3.6912,3.10246667 C4.36886667,2.50713333 5.25086667,2.2088 6.3382,2.2088 C7.3212,2.2088 8.11753333,2.50713333 8.72853333,3.10246667 C9.33886667,3.69846667 9.71153333,4.49513333 9.8452,5.49246667 L2.40686667,5.49246667 Z M11.6098667,7.00013333 C11.8032,6.81446667 11.8915333,6.5798 11.8915333,6.2968 C11.8915333,5.12046667 11.6772,4.07813333 11.2302,3.16946667 C10.7835333,2.26146667 10.1428667,1.5538 9.3092,1.04746667 C8.47486667,0.541466667 7.48486667,0.288133333 6.3382,0.288133333 C5.17686667,0.288133333 4.13786667,0.5528 3.2222,1.08113333 C2.30653333,1.6098 1.59153333,2.3468 1.07786667,3.29246667 C0.563866667,4.23813333 0.307533333,5.3068 0.307533333,6.49813333 C0.307533333,7.68946667 0.578866667,8.75413333 1.12253333,9.69213333 C1.66586667,10.6304667 2.42153333,11.3638 3.38986667,11.8924667 C4.35753333,12.4211333 5.4522,12.6854667 6.67353333,12.6854667 C7.3582,12.6854667 8.07686667,12.5588 8.82886667,12.3054667 C9.58086667,12.0524667 10.2102,11.7248 10.7165333,11.3228 C10.9062,11.1801333 11.0172,11.0081333 11.0558667,10.8088 C11.0785333,10.7264667 11.0945333,10.6418 11.0945333,10.5524667 C11.0945333,10.0208 10.6638667,9.59013333 10.1325333,9.59013333 C9.96286667,9.59013333 9.80586667,9.63813333 9.66753333,9.7148 C9.56553333,9.75046667 9.45186667,9.8118 9.26453333,9.91546667 C8.97253333,10.0978 8.5532,10.3548 8.0692,10.5188 C7.58553333,10.6824667 7.1202,10.7641333 6.67353333,10.7641333 C5.54153333,10.7641333 4.58486667,10.4441333 3.8032,9.8038 C3.0212,9.16346667 2.5482,8.32246667 2.38486667,7.27946667 L10.8728667,7.27046667 C11.1705333,7.27046667 11.4165333,7.1868 11.6098667,7.00013333 L11.6098667,7.00013333 Z" id="Fill-18" fill="#FFD112" mask="url(#mask-4)"></path>
                </g>
            </g>
        </g>
    </g>
</svg>