<?xml version="1.0" encoding="UTF-8"?>
<svg width="84px" height="84px" viewBox="0 0 84 84" version="1.1" xmlns="http://www.w3.org/2000/svg" xmlns:xlink="http://www.w3.org/1999/xlink">
    <!-- Generator: Sketch 46.2 (44496) - http://www.bohemiancoding.com/sketch -->
    <title>Page 1</title>
    <desc>Created with Sketch.</desc>
    <defs>
        <polygon id="path-1" points="0.152763795 0.156443819 83.9794356 0.156443819 83.9794356 83.9832012 0.152763795 83.9832012"></polygon>
    </defs>
    <g id="sign" stroke="none" stroke-width="1" fill="none" fill-rule="evenodd">
        <g transform="translate(-678.000000, -322.000000)" id="Page-1">
            <g transform="translate(678.000000, 322.000000)">
                <g id="Group-3">
                    <mask id="mask-2" fill="white">
                        <use xlink:href="#path-1"></use>
                    </mask>
                    <g id="Clip-2"></g>
                    <path d="M0.152763795,42.0697797 C0.152763795,18.9217429 18.9179773,0.156358237 42.0660141,0.156358237 C65.214222,0.156358237 83.9794356,18.9217429 83.9794356,42.0697797 C83.9794356,65.2179876 65.214222,83.9832012 42.0660141,83.9832012 C18.9179773,83.9832012 0.152763795,65.2179876 0.152763795,42.0697797" id="Fill-1" stroke="#E6E6E6" mask="url(#mask-2)"></path>
                </g>
                <g id="Group-26" transform="translate(23.000000, 16.000000)" fill="#CCCCCC">
                    <path d="M24.757982,43.6473633 L24.9291459,43.6643085 L13.7043875,43.6643085 C9.1642646,43.6466786 8.62321546,38.8953395 8.57203745,38.2781224 L8.57203745,30.435563 L8.57203745,28.6902045 L8.57203745,27.0045823 L11.1187854,28.7059516 L24.757982,28.7059516 C28.7389123,28.8781425 31.9152011,32.1614087 31.9152011,36.1830761 C31.9152011,40.20423 28.7389123,43.4763705 24.757982,43.6473633 L24.757982,43.6473633 Z M8.64803423,10.6164932 C8.64803423,10.6164932 8.80738784,7.53417342 11.5644962,7.53417342 L22.2428994,7.53417342 L23.4410468,7.54786653 C26.7831934,7.69232888 28.2531491,9.92670263 28.2531491,13.3047937 C28.2531491,14.2164127 28.2726618,15.604552 28.2531491,16.3990949 L28.260338,16.3828344 L28.2531491,21.5834788 L25.9280585,20.0878485 L21.8995446,20.097776 L12.0430705,20.097776 C8.69955457,20.097776 8.64803423,17.0324014 8.64803423,17.0324014 L8.64803423,10.6164932 Z M40.3097642,32.5401945 C39.585912,29.3832472 37.1627444,26.6976854 34.4061495,24.1408388 C36.1218966,21.2942117 37.0742527,17.920571 37.0742527,14.2391775 C37.0742527,6.46662408 30.2167416,0.190385623 23.7842304,0.190385623 C23.1557165,0.137153645 22.5248064,0.109596255 21.8959501,0.109596255 L8.39026138,0.109596255 C5.92960893,0.109596255 3.95557549,0.97842429 2.47021503,2.71197243 C0.946856183,4.44740337 0.184834431,6.31309004 0.184834431,8.31057294 L0.184834431,42.9871841 C0.184834431,45.0211249 0.896705156,46.913342 2.32010428,48.6605832 C3.70584734,50.4461652 6.19097623,51.337758 9.77600444,51.337758 L25.3421644,51.337758 C28.6136203,51.337758 31.5547299,50.4208329 34.1654931,48.5850999 C36.7249071,46.7885635 38.5676578,44.4605631 39.6906643,41.6021257 C40.3525551,39.8666947 40.6835861,38.0511591 40.6835861,36.1531224 C40.6835861,34.9806496 40.5600058,33.7744575 40.3097642,32.5401945 L40.3097642,32.5401945 Z" id="Fill-4"></path>
                </g>
            </g>
        </g>
    </g>
</svg>