<?xml version="1.0" encoding="utf-8"?>
<!-- Generator: Adobe Illustrator 21.1.0, SVG Export Plug-In . SVG Version: 6.00 Build 0)  -->
<svg version="1.1" id="레이어_1" xmlns="http://www.w3.org/2000/svg" xmlns:xlink="http://www.w3.org/1999/xlink" x="0px"
	 y="0px" viewBox="0 0 32 32" style="enable-background:new 0 0 32 32;" xml:space="preserve">
<style type="text/css">
	.st0{fill:none;stroke:#B1B1B1;}
</style>
<title>Page 1</title>
<desc>Created with Sketch.</desc>
<g id="Symbols">
	<g id="top_menu" transform="translate(-1369.000000, 1.000000)">
		<g id="Page-1" transform="translate(1370.000000, 0.000000)">
			<path id="Stroke-1" class="st0" d="M0.2,14.8C0.3,6.6,7,0.1,15.2,0.2c8.2,0.1,14.7,6.8,14.6,15c-0.1,8.2-6.8,14.7-15,14.6
				C6.6,29.7,0.1,23,0.2,14.8z"/>
			<g id="Group-6" transform="translate(5.735294, 19.873676)">
				<path id="Stroke-5" class="st0" d="M0.1,7c0.1-3.9,4.1-7.1,9.1-7c4.9,0.1,8.9,3.3,8.9,7.2"/>
			</g>
			<path id="Stroke-9" class="st0" d="M9.3,12c0-3.2,2.7-5.7,5.9-5.7c3.2,0,5.7,2.7,5.7,5.9c0,3.2-2.7,5.7-5.9,5.7S9.2,15.2,9.3,12z
				"/>
		</g>
	</g>
</g>
</svg>
