<?xml version="1.0" encoding="UTF-8"?>
<svg width="136px" height="34px" viewBox="0 0 136 34" version="1.1" xmlns="http://www.w3.org/2000/svg" xmlns:xlink="http://www.w3.org/1999/xlink">
    <!-- Generator: Sketch 59.1 (86144) - https://sketch.com -->
    <title>Group 4</title>
    <desc>Created with Sketch.</desc>
    <g id="Page-1" stroke="none" stroke-width="1" fill="none" fill-rule="evenodd">
        <g id="Artboard-Copy" transform="translate(-757.000000, -163.000000)" fill="#2F2F96">
            <g id="Group-4" transform="translate(756.500000, 163.000000)">
                <polygon id="Fill-1" points="43.0418236 0 37.8093586 18.5196043 31.1181368 0 22.8353391 0 16.1958941 18.6464928 11.0714852 0 0.5 0 11.7565907 34 20.29302 34 27.0600311 16.4244155 33.8247912 34 42.3146963 34 53.5 0"></polygon>
                <polygon id="Fill-2" points="85.6455592 0 85.7440608 19.0309802 67.0805845 0 57.5 0 57.6777474 34 68.2826013 34 68.183359 15.3336331 86.8949752 34 96.5 34 96.3222526 0"></polygon>
                <polygon id="Fill-3" points="103.5 0 103.683682 34 136.5 34 136.456376 24.3067896 114.696948 24.3916367 114.557656 0"></polygon>
            </g>
        </g>
    </g>
</svg>