<?xml version="1.0" encoding="UTF-8"?>
<svg width="20px" height="21px" viewBox="0 0 20 21" version="1.1" xmlns="http://www.w3.org/2000/svg" xmlns:xlink="http://www.w3.org/1999/xlink">
    <!-- Generator: Sketch 59.1 (86144) - https://sketch.com -->
    <title>Group 3</title>
    <desc>Created with Sketch.</desc>
    <defs>
        <polygon id="path-1" points="0 0 20 0 20 21 0 21"></polygon>
    </defs>
    <g id="Symbols" stroke="none" stroke-width="1" fill="none" fill-rule="evenodd">
        <g id="header" transform="translate(-955.000000, -30.000000)">
            <g id="Group-3" transform="translate(955.000000, 30.000000)">
                <mask id="mask-2" fill="white">
                    <use xlink:href="#path-1"></use>
                </mask>
                <g id="Clip-2"></g>
                <path d="M8.28927858,14.0326689 C5.33517212,14.0333354 2.94020049,11.5738489 2.93825441,8.53769888 C2.9376059,5.50154887 5.33079375,3.04006237 8.28554885,3.0387285 C11.2357634,3.03739572 13.6295999,5.49321558 13.635283,8.52536561 C13.6401405,11.5621823 11.2484121,14.0276688 8.29300831,14.0326689 L8.28927858,14.0326689 Z M15.0631126,13.4503386 C17.7105706,9.60819301 16.8251657,4.28805553 13.0868435,1.56773712 C9.34852123,-1.15241463 4.17214575,-0.243086283 1.52549858,3.59972597 C-1.12131075,7.44187156 -0.23655449,12.7613424 3.50241639,15.4814941 C6.17063111,17.4231501 9.69830482,17.5726493 12.5126276,15.8643254 L17.0059764,20.4449669 C17.6661382,21.1592963 18.7647862,21.1877961 19.4598129,20.5091332 C20.1548395,19.8313036 20.1827314,18.7023098 19.5228939,17.9878137 C19.5021372,17.9651472 19.4818669,17.9443139 19.4598129,17.9229807 L15.0631126,13.4503386 Z" id="Fill-1" fill="#282828" mask="url(#mask-2)"></path>
            </g>
        </g>
    </g>
</svg>