<svg xmlns="http://www.w3.org/2000/svg" width="93" height="18" viewBox="0 0 93 18">
    <g fill="none" fill-rule="evenodd">
        <g fill="#000">
            <g>
                <path d="M14.096 7.098V0h3.685v17.856h-3.685v-7.272H3.686v7.272H0V0h3.686v7.098h10.41zM40.171 0h4.184l-8.194 11.157v6.7h-3.685v-6.7L24.232 0h4.383l5.778 7.77L40.171 0zM65.2 0c1.693 0 2.59.896 2.59 2.59v4.483c0 .97-.797 1.768-1.794 1.768.997 0 1.794.797 1.794 1.768v4.657c0 1.694-.897 2.59-2.59 2.59H49.933V0H65.2zM53.594 7.222H64.13v-3.96H53.594v3.96zm0 7.372H64.13v-4.16H53.594v4.16zM92.495 3.262H78.573v3.885h13.548v3.263H78.573v4.184h13.922v3.262H74.888V0h17.607v3.262z" transform="translate(-30 -31) translate(30 31)"/>
            </g>
        </g>
    </g>
</svg>
